<svg xmlns="http://www.w3.org/2000/svg" width="42.624" height="43.968">
    <path fill="#1FCAAF" fill-rule="evenodd" d="M27.281 28.317A15.888 15.888 0 0 1 15.977 33c-4.266 0-8.28-1.663-11.304-4.683-6.239-6.237-6.239-16.385 0-22.62C9.974.4 18.103-.53 24.443 3.437l.002.001a1.661 1.661 0 0 1 .525 2.285 1.664 1.664 0 0 1-2.286.527C17.662 3.131 11.213 3.873 7.005 8.055c-4.937 4.936-4.937 12.967.001 17.904 4.94 4.936 12.977 4.936 17.916 0 4.221-4.219 4.953-10.673 1.78-15.696-.167-.263-.222-.563-.224-.867L15.173 22.939a1.79 1.79 0 0 1-1.189.605l-.026.003h-.08a1.64 1.64 0 0 1-1.18-.488l-5.021-5.02a1.657 1.657 0 0 1-.489-1.179c0-.445.174-.864.489-1.179a1.671 1.671 0 0 1 2.358 0l3.725 3.723L25.178 5.735c.611-.69 1.661-.778 2.353-.21.657.581.75 1.544.278 2.233.22-.041.448-.041.673.012.429.1.795.361 1.031.735 4.005 6.35 3.087 14.496-2.232 19.812z"/>
</svg>
