<svg xmlns="http://www.w3.org/2000/svg" width="28.032" height="28.032">
    <path fill="#6747CD" fill-rule="evenodd" d="M20.259 4.485h-.813l-1.898 15.863a.742.742 0 0 1-.741.651H4.192a.73.73 0 0 1-.741-.651L1.554 4.485H.741A.744.744 0 0 1 0 3.744c0-.416.325-.742.741-.742h5.674V.741c0-.416.326-.741.741-.741h6.687c.416 0 .741.325.741.741v2.261h5.675c.415 0 .741.326.741.742a.733.733 0 0 1-.741.741zm-7.157-3.002H7.897v1.519h5.205V1.483zM3.054 4.485l1.789 15.049h11.313l1.79-15.049H3.054zm9.904 12.788a.744.744 0 0 1-.741-.741V7.651c0-.416.325-.742.741-.742.415 0 .74.326.74.742v8.881a.732.732 0 0 1-.74.741zm-4.916 0a.733.733 0 0 1-.741-.741V7.651c0-.416.325-.742.741-.742s.741.326.741.742v8.881a.733.733 0 0 1-.741.741z"/>
</svg>
