<svg xmlns="http://www.w3.org/2000/svg" width="1.139in" height="1.139in">
    <path fill="#6747CD" fill-rule="evenodd" d="M79.105 17.514H75.93l-7.41 61.941c-.211 1.484-1.411 2.543-2.893 2.543H16.37c-1.481 0-2.752-1.059-2.893-2.543l-7.41-61.941H2.892c-1.553 0-2.894-1.271-2.894-2.896a2.864 2.864 0 0 1 2.894-2.896H25.05V2.894a2.863 2.863 0 0 1 2.893-2.896h26.11a2.863 2.863 0 0 1 2.894 2.896v8.828h22.158a2.864 2.864 0 0 1 2.894 2.896 2.863 2.863 0 0 1-2.894 2.896zM51.16 5.79H30.837v5.932H51.16V5.79zM11.924 17.514l6.987 58.763h44.175l6.987-58.763H11.924zm38.672 49.934c-1.553 0-2.894-1.271-2.894-2.895V29.874a2.864 2.864 0 0 1 2.894-2.896 2.863 2.863 0 0 1 2.893 2.896v34.679a2.862 2.862 0 0 1-2.893 2.895zm-19.195 0a2.862 2.862 0 0 1-2.893-2.895V29.874a2.863 2.863 0 0 1 2.893-2.896 2.864 2.864 0 0 1 2.894 2.896v34.679a2.863 2.863 0 0 1-2.894 2.895z"/>
</svg>
