<svg xmlns="http://www.w3.org/2000/svg" width="41.376" height="41.376">
    <path fill="#ED2855" fill-rule="evenodd" d="M15.5 31C6.953 31 0 24.047 0 15.5S6.953 0 15.5 0 31 6.953 31 15.5 24.047 31 15.5 31zm0-28.506C8.328 2.494 2.494 8.328 2.494 15.5c0 7.171 5.834 13.005 13.006 13.005 7.171 0 13.005-5.834 13.005-13.005 0-7.172-5.834-13.006-13.005-13.006zm1.764 12.847l4.107 4.107a1.25 1.25 0 0 1 0 1.764c-.24.239-.545.364-.882.364-.338 0-.643-.125-.882-.363L15.5 17.106l-4.107 4.106a1.223 1.223 0 0 1-.882.364c-.337 0-.642-.125-.882-.363v-.001a1.25 1.25 0 0 1 0-1.764l4.107-4.107-4.107-4.106a1.25 1.25 0 0 1 0-1.764 1.25 1.25 0 0 1 1.764-.001l4.107 4.107 4.107-4.106a1.25 1.25 0 0 1 1.764-.001 1.25 1.25 0 0 1 0 1.765l-4.107 4.106z"/>
</svg>
